<svg width="30" height="30" viewBox="0 0 30 30" fill="none" xmlns="http://www.w3.org/2000/svg">
<rect x="7.68519" y="8.35035" width="13.3534" height="15.3465" rx="0.39861" fill="#FAF6EC" stroke="#1B2A4E" stroke-width="0.597915"/>
<line x1="9.37891" y1="16.746" x2="19.3442" y2="16.746" stroke="#1B2A4E" stroke-width="0.298958"/>
<line x1="9.37891" y1="19.611" x2="16.0058" y2="19.611" stroke="#1B2A4E" stroke-width="0.298958"/>
<line x1="9.37891" y1="13.881" x2="19.3442" y2="13.881" stroke="#1B2A4E" stroke-width="0.298958"/>
<line x1="10.2509" y1="21.2304" x2="10.2509" y2="12.2617" stroke="#C8362D" stroke-width="0.298958"/>
<line x1="9.37884" y1="10.4928" x2="9.37884" y2="6.00843" stroke="#1B2A4E" stroke-width="0.298958"/>
<line x1="11.8705" y1="10.4928" x2="11.8705" y2="6.00843" stroke="#1B2A4E" stroke-width="0.298958"/>
<line x1="14.3618" y1="10.4928" x2="14.3618" y2="6.00843" stroke="#1B2A4E" stroke-width="0.298958"/>
<line x1="16.8535" y1="10.4928" x2="16.8535" y2="6.00843" stroke="#1B2A4E" stroke-width="0.298958"/>
<line x1="19.3447" y1="10.4928" x2="19.3447" y2="6.00843" stroke="#1B2A4E" stroke-width="0.298958"/>
<circle cx="9.37912" cy="8.35031" r="0.498263" fill="#FAF6EC" stroke="#1B2A4E" stroke-width="0.298958"/>
<circle cx="14.3615" cy="8.35031" r="0.498263" fill="#FAF6EC" stroke="#1B2A4E" stroke-width="0.298958"/>
<circle cx="19.344" cy="8.35031" r="0.498263" fill="#FAF6EC" stroke="#1B2A4E" stroke-width="0.298958"/>
<circle cx="16.8528" cy="8.35031" r="0.498263" fill="#FAF6EC" stroke="#1B2A4E" stroke-width="0.298958"/>
<circle cx="11.8703" cy="8.35031" r="0.498263" fill="#FAF6EC" stroke="#1B2A4E" stroke-width="0.298958"/>
<path d="M21.5111 22.9494L21.0716 21.8519H21.9506L21.5111 22.9494Z" fill="#1B2A4E"/>
<rect x="20.5401" y="9.24714" width="1.94328" height="1.63645" fill="#C8362D" stroke="#1B2A4E" stroke-width="0.298958"/>
<rect x="20.5401" y="10.923" width="1.94328" height="0.645144" fill="#6B6760" stroke="#1B2A4E" stroke-width="0.298958"/>
<mask id="path-19-inside-1_33_607" fill="white">
<path d="M22.5693 20.2603L22.0742 22.0386H21.5117V22.0396H20.9248L20.4287 20.2603H22.5693Z"/>
</mask>
<path d="M22.5693 20.2603L22.0742 22.0386H21.5117V22.0396H20.9248L20.4287 20.2603H22.5693Z" fill="#FAF6EC"/>
<path d="M22.5693 20.2603L22.8573 20.3405L22.9629 19.9614H22.5693V20.2603ZM22.0742 22.0386V22.3376H22.3013L22.3622 22.1188L22.0742 22.0386ZM21.5117 22.0386V21.7397H21.2128V22.0386H21.5117ZM21.5117 22.0396V22.3386H21.8107V22.0396H21.5117ZM20.9248 22.0396L20.6368 22.1199L20.6978 22.3386H20.9248V22.0396ZM20.4287 20.2603V19.9614H20.035L20.1407 20.3406L20.4287 20.2603ZM22.5693 20.2603L22.2813 20.1801L21.7862 21.9584L22.0742 22.0386L22.3622 22.1188L22.8573 20.3405L22.5693 20.2603ZM22.0742 22.0386V21.7397H21.5117V22.0386V22.3376H22.0742V22.0386ZM21.5117 22.0386H21.2128V22.0396H21.5117H21.8107V22.0386H21.5117ZM21.5117 22.0396V21.7407H20.9248V22.0396V22.3386H21.5117V22.0396ZM20.9248 22.0396L21.2128 21.9593L20.7167 20.18L20.4287 20.2603L20.1407 20.3406L20.6368 22.1199L20.9248 22.0396ZM20.4287 20.2603V20.5593H22.5693V20.2603V19.9614H20.4287V20.2603Z" fill="#1B2A4E" mask="url(#path-19-inside-1_33_607)"/>
<rect x="20.5401" y="11.631" width="1.94328" height="8.83523" fill="#F4C430" stroke="#1B2A4E" stroke-width="0.298958"/>
</svg>
