<svg width="1024" height="1024" viewBox="0 0 1024 1024" fill="none" xmlns="http://www.w3.org/2000/svg">
<rect width="1024" height="1024" fill="#F4A29B"/>
<rect x="262.2" y="284.9" width="455.6" height="523.6" rx="13.6" fill="#FAF6EC" stroke="#1B2A4E" stroke-width="20.4"/>
<line x1="320" y1="571.35" x2="660" y2="571.35" stroke="#1B2A4E" stroke-width="10.2"/>
<line x1="320" y1="669.1" x2="546.1" y2="669.1" stroke="#1B2A4E" stroke-width="10.2"/>
<line x1="320" y1="473.6" x2="660" y2="473.6" stroke="#1B2A4E" stroke-width="10.2"/>
<line x1="349.75" y1="724.35" x2="349.75" y2="418.35" stroke="#C8362D" stroke-width="10.2"/>
<line x1="320" y1="358" x2="320" y2="205" stroke="#1B2A4E" stroke-width="10.2"/>
<line x1="405" y1="358" x2="405" y2="205" stroke="#1B2A4E" stroke-width="10.2"/>
<line x1="490" y1="358" x2="490" y2="205" stroke="#1B2A4E" stroke-width="10.2"/>
<line x1="575" y1="358" x2="575" y2="205" stroke="#1B2A4E" stroke-width="10.2"/>
<line x1="660" y1="358" x2="660" y2="205" stroke="#1B2A4E" stroke-width="10.2"/>
<circle cx="320" cy="284.9" r="17" fill="#FAF6EC" stroke="#1B2A4E" stroke-width="10.2"/>
<circle cx="490" cy="284.9" r="17" fill="#FAF6EC" stroke="#1B2A4E" stroke-width="10.2"/>
<circle cx="660" cy="284.9" r="17" fill="#FAF6EC" stroke="#1B2A4E" stroke-width="10.2"/>
<circle cx="575" cy="284.9" r="17" fill="#FAF6EC" stroke="#1B2A4E" stroke-width="10.2"/>
<circle cx="405" cy="284.9" r="17" fill="#FAF6EC" stroke="#1B2A4E" stroke-width="10.2"/>
<path d="M733.929 783L718.935 745.554H748.923L733.929 783Z" fill="#1B2A4E"/>
<rect x="700.8" y="315.5" width="66.302" height="55.8333" fill="#C8362D" stroke="#1B2A4E" stroke-width="10.2"/>
<rect x="700.8" y="372.675" width="66.302" height="22.0114" fill="#6B6760" stroke="#1B2A4E" stroke-width="10.2"/>
<mask id="path-19-inside-1_25_2" fill="white">
<path d="M770.035 691.253L753.131 751.941H733.945V751.951H713.901L696.997 691.263H733.087V691.253H770.035Z"/>
</mask>
<path d="M770.035 691.253L753.131 751.941H733.945V751.951H713.901L696.997 691.263H733.087V691.253H770.035Z" fill="#FAF6EC"/>
<path d="M770.035 691.253L779.861 693.99L783.464 681.053H770.035V691.253ZM753.131 751.941V762.141H760.879L762.957 754.678L753.131 751.941ZM733.945 751.941V741.741H723.745V751.941H733.945ZM733.945 751.951V762.151H744.145V751.951H733.945ZM713.901 751.951L704.075 754.688L706.154 762.151H713.901V751.951ZM696.997 691.263V681.063H683.567L687.171 694L696.997 691.263ZM733.087 691.263V701.463H743.287V691.263H733.087ZM733.087 691.253V681.053H722.887V691.253H733.087ZM770.035 691.253L760.209 688.516L743.305 749.204L753.131 751.941L762.957 754.678L779.861 693.99L770.035 691.253ZM753.131 751.941V741.741H733.945V751.941V762.141H753.131V751.941ZM733.945 751.941H723.745V751.951H733.945H744.145V751.941H733.945ZM733.945 751.951V741.751H713.901V751.951V762.151H733.945V751.951ZM713.901 751.951L723.727 749.214L706.823 688.526L696.997 691.263L687.171 694L704.075 754.688L713.901 751.951ZM696.997 691.263V701.463H733.087V691.263V681.063H696.997V691.263ZM733.087 691.263H743.287V691.253H733.087H722.887V691.263H733.087ZM733.087 691.253V701.453H770.035V691.253V681.053H733.087V691.253Z" fill="#1B2A4E" mask="url(#path-19-inside-1_25_2)"/>
<rect x="700.8" y="396.834" width="66.302" height="301.445" fill="#F4C430" stroke="#1B2A4E" stroke-width="10.2"/>
</svg>
